<svg width="1824" height="712" viewBox="0 0 1824 712" fill="none" xmlns="http://www.w3.org/2000/svg">
<circle cx="304.784" cy="186.86" r="43" transform="rotate(-123.363 304.784 186.86)" stroke="#FDAA01" stroke-opacity="0.1" stroke-width="25"/>
<path d="M119.23 65.9846C160.003 39.1367 215.026 50.5456 242.09 91.6471C269.154 132.749 257.894 187.802 217.12 214.65C176.346 241.498 121.323 230.089 94.2596 188.988C67.1958 147.886 78.4559 92.8325 119.23 65.9846Z" stroke="#5B0931" stroke-opacity="0.1" stroke-width="25"/>
<path d="M107.853 448.93C157.807 416.037 225.197 430.025 258.336 480.352C291.475 530.68 277.697 598.113 227.743 631.006C177.788 663.899 110.398 649.912 77.2595 599.584C44.1207 549.256 57.8983 481.823 107.853 448.93Z" stroke="#5B0931" stroke-opacity="0.1" stroke-width="25"/>
<circle cx="1309.33" cy="311.332" r="97" transform="rotate(66.2449 1309.33 311.332)" stroke="#FDAA01" stroke-opacity="0.1" stroke-width="25"/>
<circle cx="1559.89" cy="447.434" r="187.5" transform="rotate(66.2449 1559.89 447.434)" stroke="#5B0931" stroke-opacity="0.1" stroke-width="25"/>
</svg>
