<svg width="309" height="392" viewBox="0 0 309 392" fill="none" xmlns="http://www.w3.org/2000/svg">
<path d="M272.988 1H37.2612C36.7978 1 36.3365 1.06444 35.8908 1.19147L34.1588 1.68509C33.5886 1.84759 33.0519 2.11021 32.5736 2.46067L31.133 3.51643C30.8826 3.69999 30.6497 3.90647 30.4376 4.13322L26.7032 8.12425C26.5027 8.33853 26.3215 8.57005 26.1616 8.81613L23.1485 13.4533C22.8994 13.8366 22.704 14.2523 22.5679 14.6888L21.5483 17.9579C21.398 18.4398 21.3215 18.9418 21.3215 19.4466V300.368C21.3215 303.129 19.0829 305.368 16.3215 305.368H10.7979H8.07924C7.01631 305.368 5.98104 305.706 5.1237 306.335L4.68002 306.66C4.16677 307.036 3.73004 307.507 3.39327 308.046L1.9318 310.389C1.32875 311.356 1.07398 312.5 1.20969 313.631L1.56003 316.552C1.66846 317.455 2.02162 318.313 2.58142 319.031L3.52717 320.243C4.45367 321.432 5.86659 322.139 7.37305 322.168L27.8989 322.567C28.5853 322.58 29.2596 322.75 29.8704 323.063C30.4541 323.363 30.9655 323.786 31.3689 324.303L32.4992 325.753C33.0222 326.424 33.3655 327.217 33.4965 328.057L33.9627 331.047C34.0025 331.302 34.0225 331.559 34.0225 331.817V333.256C34.0225 334.191 33.7599 335.108 33.2648 335.902L33.0487 336.248C32.7327 336.755 32.3286 337.201 31.8556 337.565L30.7565 338.41L30.2902 338.769C29.4161 339.442 28.344 339.807 27.241 339.807H14.6112C13.5482 339.807 12.513 340.145 11.6556 340.774L10.8115 341.392C10.561 341.576 10.3282 341.782 10.1161 342.009L9.60669 342.553C8.73992 343.48 8.25768 344.701 8.25768 345.97V347.718V350.68C8.25768 351.185 8.33414 351.687 8.48446 352.169L8.7126 352.9C8.8917 353.474 9.17294 354.012 9.54281 354.486L10.435 355.63C11.351 356.805 12.7575 357.492 14.2471 357.492H15.9586C18.7201 357.492 20.9586 359.73 20.9586 362.492V367.721C20.9586 368.342 21.0744 368.958 21.3001 369.537L22.4102 372.384L24.4338 378.44C24.536 378.746 24.6676 379.041 24.8267 379.322L27.1545 383.427C27.3775 383.82 27.6528 384.181 27.9728 384.5L30.7565 387.277L34.1118 389.925C34.9941 390.621 36.0854 391 37.2094 391H270.773C271.156 391 271.537 390.956 271.909 390.869L274.502 390.265C275.057 390.135 275.586 389.912 276.065 389.604L279.702 387.272C280.178 386.967 280.598 386.584 280.946 386.138L284.856 381.123C285.044 380.882 285.209 380.625 285.35 380.355L287.055 377.074C287.228 376.741 287.363 376.389 287.458 376.026L288.243 373.003C288.35 372.592 288.404 372.169 288.404 371.745V90.7017C288.404 87.9402 290.643 85.7017 293.404 85.7017H296.169C296.555 85.7017 296.94 85.6532 297.313 85.5573C298.132 85.3473 298.877 84.9162 299.467 84.311L299.756 84.0141C300.168 83.5912 300.502 83.0986 300.743 82.5592L301.5 80.8587C301.719 80.3674 301.858 79.844 301.91 79.3087L302.123 77.1197C302.17 76.6383 302.147 76.1527 302.054 75.678L301.62 73.4517C301.519 72.9342 301.337 72.436 301.081 71.9755L300.206 70.4044C299.846 69.7579 299.302 69.2326 298.644 68.8949C298.115 68.6236 297.529 68.4821 296.935 68.4821H296.388H291.67H285.864H282.122C281.019 68.4821 279.947 68.1174 279.073 67.4447L278.251 66.8121C277.309 66.0876 276.656 65.0516 276.409 63.8895L275.907 61.5302C275.773 60.8964 275.762 60.2424 275.877 59.6047L276.514 56.0658C276.695 55.0597 277.18 54.1332 277.904 53.4113L278.852 52.4653C279.634 51.6854 280.652 51.1864 281.747 51.0459L283.687 50.7971H288.404H302.323C304.048 50.7971 305.652 49.9074 306.565 48.4434L307.242 47.3579C307.737 46.564 308 45.6472 308 44.7116V41.0593C308 40.1237 307.737 39.2068 307.242 38.413L306.565 37.3274C305.652 35.8634 304.048 34.9737 302.323 34.9737H291.197C289.654 34.9737 288.404 33.7236 288.404 32.1814V22.9933C288.404 22.6045 288.359 22.217 288.269 21.8388L286.075 12.5925C285.936 12.0051 285.691 11.4477 285.353 10.9475L281.834 5.74C281.382 5.07201 280.776 4.52309 280.067 4.14002L275.364 1.60046C274.634 1.20635 273.817 1 272.988 1Z" fill="white" fill-opacity="0.6" stroke="white" stroke-linecap="round" stroke-linejoin="round"/>
</svg>
