<svg width="449" height="421" viewBox="0 0 449 421" fill="none" xmlns="http://www.w3.org/2000/svg">
<circle cx="9.00006" cy="337" r="8.5" fill="white" fill-opacity="0.6" stroke="#5B0931"/>
<path d="M400.49 1H74.5489C74.1841 1 73.8204 1.03993 73.4643 1.11906L70.2389 1.83581C69.7491 1.94465 69.2785 2.12659 68.8429 2.37553L66.3822 3.78164C66.1279 3.92693 65.8869 4.09428 65.662 4.28175L60.3493 8.70901C60.1169 8.9026 59.9027 9.11688 59.7091 9.34919L55.5072 14.3915C55.1712 14.7946 54.9008 15.2482 54.7059 15.7355L53.3577 19.106C53.1214 19.6966 53.0001 20.3268 53.0001 20.9629V323C53.0001 325.761 50.7615 328 48.0001 328H38.5001H33.8279C32.9577 328 32.1027 328.227 31.3472 328.659L29.828 329.527C29.281 329.839 28.7979 330.253 28.4044 330.745L26.3714 333.286C25.4974 334.378 25.1211 335.787 25.3339 337.17L25.7512 339.882C25.9129 340.933 26.4055 341.905 27.1575 342.657L29.0669 344.567C29.986 345.486 31.227 346.011 32.5267 346.031L62.5765 346.486C63.187 346.495 63.7907 346.616 64.3577 346.843L65.0472 347.119C65.6759 347.37 66.2469 347.747 66.7258 348.226L68.4296 349.93C69.1276 350.628 69.6034 351.517 69.797 352.484L70.403 355.515C70.4675 355.837 70.5001 356.166 70.5001 356.495V357.746C70.5001 358.881 70.1137 359.983 69.4044 360.87L69.0614 361.298C68.6901 361.762 68.2391 362.157 67.7295 362.462L66.0001 363.5L64.6876 364.287C63.9105 364.754 63.0214 365 62.1151 365H42.8279C41.9577 365 41.1027 365.227 40.3472 365.659L38.3822 366.782C38.1279 366.927 37.8869 367.094 37.662 367.282L36.7991 368.001C35.6592 368.951 35.0001 370.358 35.0001 371.842V373.5V376.537C35.0001 377.173 35.1214 377.803 35.3577 378.394L35.6189 379.047C35.8704 379.676 36.247 380.247 36.7258 380.726L38.0001 382L38.5356 382.536C39.4733 383.473 40.745 384 42.0711 384H47.5001C50.2615 384 52.5001 386.239 52.5001 389V394.82C52.5001 395.596 52.6808 396.361 53.0279 397.056L54.5001 400L57.2786 406.483C57.4258 406.827 57.611 407.152 57.8307 407.455L61.0842 411.928C61.3601 412.307 61.6879 412.646 62.0582 412.934L66.0001 416L71.2948 419.258C72.0828 419.743 72.99 420 73.9153 420H397.049C397.349 420 397.649 419.973 397.944 419.919L402.297 419.128C402.763 419.043 403.215 418.892 403.639 418.681L409.274 415.863C409.755 415.623 410.194 415.306 410.574 414.926L416.15 409.35C416.383 409.117 416.592 408.862 416.775 408.588L419.129 405.057C419.375 404.687 419.571 404.286 419.712 403.865L420.743 400.77C420.913 400.26 421 399.726 421 399.189V97C421 94.2386 423.239 92 426 92H432.005C432.334 92 432.663 91.9675 432.986 91.9029L433.807 91.7386C434.591 91.5818 435.326 91.2394 435.95 90.74L436.755 90.0957C437.247 89.7021 437.661 89.2191 437.973 88.6721L439.004 86.8682C439.331 86.2951 439.542 85.6628 439.624 85.0077L439.884 82.9268C439.961 82.3142 439.923 81.6928 439.774 81.0939L439.23 78.921C439.078 78.3124 438.813 77.7379 438.448 77.2275L437.352 75.6921C436.796 74.9137 436.028 74.3112 435.14 73.9559L434.894 73.8576C434.303 73.6214 433.673 73.5 433.037 73.5H432H425.5H417.5H411.385C410.479 73.5 409.59 73.2537 408.812 72.7875L406.723 71.5336C405.617 70.8703 404.811 69.8056 404.471 68.5618L403.831 66.2139C403.614 65.4171 403.597 64.5788 403.783 63.774L404.6 60.2315C404.859 59.1115 405.495 58.1147 406.403 57.409L408.362 55.885C409.106 55.3068 409.997 54.9503 410.934 54.8566L414.5 54.5H421H441.597C443.116 54.5 444.552 53.8096 445.501 52.6235L446.904 50.8696C447.614 49.983 448 48.8815 448 47.7461V44.2539C448 43.1185 447.614 42.017 446.904 41.1304L445.501 39.3765C444.552 38.1904 443.116 37.5 441.597 37.5H424C422.343 37.5 421 36.1569 421 34.5V24.744C421 24.2507 420.927 23.7601 420.783 23.2882L417.809 13.5162C417.605 12.8462 417.263 12.2265 416.804 11.6973L411.764 5.88108C411.261 5.30147 410.632 4.84519 409.926 4.54755L402.431 1.39182C401.816 1.13322 401.157 1 400.49 1Z" fill="white" fill-opacity="0.6" stroke="#5B0931" stroke-linecap="round" stroke-linejoin="round"/>
</svg>
